<svg xmlns="http://www.w3.org/2000/svg" width="214.117" height="182.686" viewBox="0 0 214.117 182.686">
  <g id="Cards" transform="translate(-85.091 396.91)">
    <g id="Group_20" data-name="Group 20" transform="translate(86 -396)">
      <g id="Group_19" data-name="Group 19">
        <g id="Group_17" data-name="Group 17">
          <path id="Path_21" data-name="Path 21" d="M7853.911,255.855a9.253,9.253,0,0,1,.829,8.1l-5.91,7.647h-84.816l-6.942,8.184v47l-7.566,4.671-1.239.785a9.363,9.363,0,0,1-12.813-3.017l-37.531-60.636a9.3,9.3,0,0,1,2.978-12.813l102.627-63.57a9.273,9.273,0,0,1,12.813,3.017Zm-37.736-22.485a5.223,5.223,0,0,0,1.654-7.192l-4.876-7.812a5.223,5.223,0,0,0-7.193-1.653l-17.774,11.16a5.217,5.217,0,0,0-1.651,7.192l4.876,7.771a5.224,5.224,0,0,0,7.193,1.653Z" transform="translate(-7696.514 -190.796)" fill="#486bc4" stroke="#486bc4" stroke-width="1"/>
        </g>
        <g id="Group_18" data-name="Group 18">
          <path id="Path_22" data-name="Path 22" d="M7749.505,331.454l7.566-4.671v-47l6.942-8.184h84.816l5.91-7.647a9.253,9.253,0,0,0-.829-8.1L7816.34,195.22a9.273,9.273,0,0,0-12.813-3.017L7700.9,255.773a9.3,9.3,0,0,0-2.978,12.813l37.531,60.636a9.363,9.363,0,0,0,12.813,3.017Z" transform="translate(-7696.514 -190.796)" fill="#5fb67c" stroke="#5fb67c" stroke-linecap="round" stroke-linejoin="round" stroke-width="1.777"/>
          <path id="Path_23" data-name="Path 23" d="M7748.688,214.326l-17.771,11.119a5.223,5.223,0,0,1-7.193-1.653l-4.876-7.771a5.215,5.215,0,0,1,1.653-7.192l17.772-11.16a5.223,5.223,0,0,1,7.192,1.653l4.876,7.812A5.219,5.219,0,0,1,7748.688,214.326Z" transform="translate(-7629.027 -171.752)" fill="#1d1e20" stroke="#1d1e20" stroke-linecap="round" stroke-linejoin="round" stroke-width="1"/>
        </g>
      </g>
    </g>
    <g id="Group_24" data-name="Group 24" transform="translate(134.859 -327.679)">
      <g id="Group_21" data-name="Group 21" transform="translate(8.412 8.593)">
        <path id="Path_24" data-name="Path 24" d="M7844.553,306.685h-121.7a12.506,12.506,0,0,1-12.489-12.491V221.9a12.507,12.507,0,0,1,12.489-12.5h121.7a12.508,12.508,0,0,1,12.492,12.5v72.3A12.507,12.507,0,0,1,7844.553,306.685Zm-121.7-89.933a5.148,5.148,0,0,0-5.141,5.146v72.3a5.151,5.151,0,0,0,5.141,5.146h121.7a5.153,5.153,0,0,0,5.148-5.146V221.9a5.151,5.151,0,0,0-5.148-5.146Z" transform="translate(-7710.367 -209.404)" fill="#5fb67c" stroke="#5fb67c" stroke-width="1"/>
      </g>
      <g id="Group_22" data-name="Group 22">
        <path id="Path_25" data-name="Path 25" d="M7852.513,320.78H7728.5a20.186,20.186,0,0,1-20.165-20.162V227.491a20.19,20.19,0,0,1,20.165-20.166h124.015a20.193,20.193,0,0,1,20.169,20.166v73.126A20.189,20.189,0,0,1,7852.513,320.78ZM7728.5,215.724a11.779,11.779,0,0,0-11.763,11.768v73.126a11.778,11.778,0,0,0,11.763,11.763h124.015a11.779,11.779,0,0,0,11.769-11.763V227.491a11.78,11.78,0,0,0-11.769-11.768Z" transform="translate(-7708.333 -207.325)" fill="#1d1e20"/>
      </g>
      <g id="Group_23" data-name="Group 23" transform="translate(12.953 32.204)">
        <rect id="Rectangle_11" data-name="Rectangle 11" width="137.913" height="16.533" fill="#5fb67c" stroke="#5fb67c" stroke-width="1"/>
      </g>
    </g>
  </g>
</svg>
