<svg id="Group_65" data-name="Group 65" xmlns="http://www.w3.org/2000/svg" width="149.224" height="180.467" viewBox="0 0 149.224 180.467">
  <g id="Group_25" data-name="Group 25">
    <path id="Path_26" data-name="Path 26" d="M7702.61,280.78c1.008,65.487,25.468,113.271,73.866,143,41.373-29.937,73.563-69.063,72.047-141.909-31.292-6.187-38.937-25.473-71.321-35.3C7747.368,251.67,7737.18,273.5,7702.61,280.78Z" transform="translate(-7700.979 -244.947)" fill="#5fb67c"/>
    <path id="Path_27" data-name="Path 27" d="M7777.608,426.543a1.639,1.639,0,0,1-.85-.241c-48.513-29.807-73.632-78.375-74.647-144.368a1.635,1.635,0,0,1,1.292-1.618c17.252-3.631,28.315-10.944,39.006-18.013,10.609-7.014,20.628-13.637,35.652-16.2a1.614,1.614,0,0,1,.747.046c15.6,4.734,25.464,11.569,35,18.179,10.31,7.144,20.042,13.894,36.163,17.078a1.632,1.632,0,0,1,1.31,1.563c1.633,78.691-35.843,116.58-72.72,143.267A1.632,1.632,0,0,1,7777.608,426.543ZM7705.4,283.218c1.3,63.706,25.567,110.705,72.14,139.737,35.7-26.01,71.673-62.935,70.518-138.621-16.013-3.412-25.775-10.179-36.1-17.332-9.255-6.415-18.822-13.044-33.725-17.625-14.141,2.5-23.8,8.883-34.024,15.642C7733.526,272.078,7722.5,279.372,7705.4,283.218Z" transform="translate(-7702.111 -246.077)" fill="#5fb67c"/>
  </g>
  <g id="Group_26" data-name="Group 26" transform="translate(35.595 48.712)">
    <path id="Path_28" data-name="Path 28" d="M7725.651,289.821l-12.109,12.107,35.306,30.421,45.988-61.452-14.041-9.36L7746,307.117Z" transform="translate(-7711.914 -259.909)" fill="#171819"/>
    <path id="Path_29" data-name="Path 29" d="M7749.975,335.105a1.611,1.611,0,0,1-1.06-.394l-35.308-30.422a1.626,1.626,0,0,1-.086-2.383l12.107-12.107a1.623,1.623,0,0,1,2.2-.091l19.046,16.186,33.751-44.218a1.628,1.628,0,0,1,2.2-.365l14.04,9.358a1.62,1.62,0,0,1,.7,1.081,1.637,1.637,0,0,1-.3,1.25l-45.992,61.453a1.635,1.635,0,0,1-1.3.651Zm-32.912-32.138,32.654,28.14,43.915-58.682-11.342-7.558-33.867,44.365a1.626,1.626,0,0,1-2.347.254l-19.209-16.323Z" transform="translate(-7713.043 -261.037)" fill="#171819"/>
  </g>
</svg>
