<svg xmlns="http://www.w3.org/2000/svg" width="204.351" height="36.471" viewBox="0 0 204.351 36.471">
  <g id="Stars" transform="translate(1 1)">
    <path id="Path_46" data-name="Path 46" d="M7515.711-199.059l5.6,11.347,12.522,1.82-9.061,8.832,2.139,12.472-11.2-5.888-11.2,5.888,2.139-12.472-9.061-8.832,12.522-1.82Z" transform="translate(-7497.588 199.059)" fill="#5fb67c" stroke="#5fb67c" stroke-linecap="round" stroke-linejoin="round" stroke-width="2"/>
    <path id="Path_47" data-name="Path 47" d="M7515.711-199.059l5.6,11.347,12.522,1.82-9.061,8.832,2.139,12.472-11.2-5.888-11.2,5.888,2.139-12.472-9.061-8.832,12.522-1.82Z" transform="translate(-7456.062 199.059)" fill="#5fb67c" stroke="#5fb67c" stroke-linecap="round" stroke-linejoin="round" stroke-width="2"/>
    <path id="Path_48" data-name="Path 48" d="M7515.711-199.059l5.6,11.347,12.522,1.82-9.061,8.832,2.139,12.472-11.2-5.888-11.2,5.888,2.139-12.472-9.061-8.832,12.522-1.82Z" transform="translate(-7414.536 199.059)" fill="#5fb67c" stroke="#5fb67c" stroke-linecap="round" stroke-linejoin="round" stroke-width="2"/>
    <path id="Path_49" data-name="Path 49" d="M7515.711-199.059l5.6,11.347,12.522,1.82-9.061,8.832,2.139,12.472-11.2-5.888-11.2,5.888,2.139-12.472-9.061-8.832,12.522-1.82Z" transform="translate(-7373.009 199.059)" fill="#5fb67c" stroke="#5fb67c" stroke-linecap="round" stroke-linejoin="round" stroke-width="2"/>
    <path id="Path_50" data-name="Path 50" d="M7515.711-199.059l5.6,11.347,12.522,1.82-9.061,8.832,2.139,12.472-11.2-5.888-11.2,5.888,2.139-12.472-9.061-8.832,12.522-1.82Z" transform="translate(-7331.482 199.059)" fill="#5fb67c" stroke="#5fb67c" stroke-linecap="round" stroke-linejoin="round" stroke-width="2"/>
  </g>
</svg>
