<svg xmlns="http://www.w3.org/2000/svg" width="452.021" height="385.521" viewBox="0 0 452.021 385.521">
  <g id="Cards" transform="translate(0.929 0.931)">
    <g id="Group_20" data-name="Group 20" transform="translate(0)">
      <g id="Group_19" data-name="Group 19">
        <g id="Group_17" data-name="Group 17">
          <path id="Path_21" data-name="Path 21" d="M8029.523,328.445a19.574,19.574,0,0,1,1.754,17.14l-12.5,16.178H7839.324l-14.687,17.315v99.43l-16.008,9.882-2.621,1.661a19.811,19.811,0,0,1-27.109-6.384l-79.406-128.289a19.675,19.675,0,0,1,6.3-27.109l217.133-134.5a19.619,19.619,0,0,1,27.109,6.384Zm-79.84-47.573a11.05,11.05,0,0,0,3.5-15.216l-10.316-16.528a11.052,11.052,0,0,0-15.219-3.5l-37.605,23.612a11.037,11.037,0,0,0-3.492,15.216l10.316,16.441a11.052,11.052,0,0,0,15.219,3.5Z" transform="translate(-7696.514 -190.796)" fill="#486bc4" stroke="#486bc4" stroke-width="1"/>
        </g>
        <g id="Group_18" data-name="Group 18">
          <path id="Path_22" data-name="Path 22" d="M7808.629,488.391l16.008-9.882v-99.43l14.688-17.315h179.449l12.5-16.178a19.574,19.574,0,0,0-1.754-17.14l-79.488-128.289a19.619,19.619,0,0,0-27.109-6.384l-217.133,134.5a19.675,19.675,0,0,0-6.3,27.109L7778.9,483.668a19.811,19.811,0,0,0,27.109,6.384Z" transform="translate(-7696.514 -190.796)" fill="#5fb67c" stroke="#5fb67c" stroke-linecap="round" stroke-linejoin="round" stroke-width="1.777"/>
          <path id="Path_23" data-name="Path 23" d="M7782.867,233.8l-37.6,23.524a11.052,11.052,0,0,1-15.219-3.5l-10.316-16.441a11.035,11.035,0,0,1,3.5-15.216l37.6-23.612a11.052,11.052,0,0,1,15.219,3.5l10.316,16.528A11.043,11.043,0,0,1,7782.867,233.8Z" transform="translate(-7529.699 -143.722)" stroke="#000" stroke-linecap="round" stroke-linejoin="round" stroke-width="1"/>
        </g>
      </g>
    </g>
    <g id="Group_24" data-name="Group 24" transform="translate(103.373 144.549)">
      <g id="Group_21" data-name="Group 21" transform="translate(17.797 18.181)">
        <path id="Path_24" data-name="Path 24" d="M7994.27,415.226h-257.48a26.458,26.458,0,0,1-26.422-26.427V235.84a26.46,26.46,0,0,1,26.422-26.436h257.48a26.464,26.464,0,0,1,26.43,26.436V388.8A26.462,26.462,0,0,1,7994.27,415.226Zm-257.48-190.273a10.891,10.891,0,0,0-10.875,10.888V388.8a10.9,10.9,0,0,0,10.875,10.888h257.48A10.9,10.9,0,0,0,8005.16,388.8V235.84a10.9,10.9,0,0,0-10.891-10.888Z" transform="translate(-7710.367 -209.404)" fill="#5fb67c" stroke="#5fb67c" stroke-width="1"/>
      </g>
      <g id="Group_22" data-name="Group 22">
        <path id="Path_25" data-name="Path 25" d="M8013.379,447.366H7751a42.709,42.709,0,0,1-42.664-42.658V249.992A42.716,42.716,0,0,1,7751,207.325h262.383a42.723,42.723,0,0,1,42.672,42.667V404.708A42.716,42.716,0,0,1,8013.379,447.366ZM7751,225.095a24.922,24.922,0,0,0-24.887,24.9V404.708A24.92,24.92,0,0,0,7751,429.6h262.383a24.92,24.92,0,0,0,24.9-24.888V249.992a24.922,24.922,0,0,0-24.9-24.9Z" transform="translate(-7708.332 -207.325)" fill="#1d1e20"/>
      </g>
      <g id="Group_23" data-name="Group 23" transform="translate(27.405 68.134)">
        <rect id="Rectangle_11" data-name="Rectangle 11" width="291.787" height="34.98" fill="#5fb67c" stroke="#5fb67c" stroke-width="1"/>
      </g>
    </g>
  </g>
</svg>
