<svg id="Checkmark" xmlns="http://www.w3.org/2000/svg" width="24.755" height="24.084" viewBox="0 0 24.755 24.084">
  <path id="Path_28" data-name="Path 28" d="M7717.024,270.734l-3.482,3.937,10.153,9.892,13.225-19.982-4.038-3.044-10.006,14.821Z" transform="translate(-7712.854 -261.007)" fill="#72bf87"/>
  <path id="Path_29" data-name="Path 29" d="M7723.856,285.121a.446.446,0,0,1-.311-.128l-10.338-9.892a.555.555,0,0,1-.165-.381.564.564,0,0,1,.14-.394l3.545-3.937a.442.442,0,0,1,.645-.03l5.576,5.263,9.883-14.378a.446.446,0,0,1,.644-.119l4.111,3.043a.536.536,0,0,1,.205.352.579.579,0,0,1-.087.407l-13.466,19.982a.468.468,0,0,1-.33.209A.427.427,0,0,1,7723.856,285.121Zm-9.636-10.45,9.561,9.15,12.858-19.081-3.32-2.457-9.917,14.426a.463.463,0,0,1-.328.205.442.442,0,0,1-.359-.123l-5.624-5.308Z" transform="translate(-7713.042 -261.037)" fill="#72bf87"/>
</svg>
