<svg xmlns="http://www.w3.org/2000/svg" width="92.448" height="91.538" viewBox="0 0 92.448 91.538">
  <g id="Facebook" transform="translate(1.478 1.478)">
    <g id="Group_36" data-name="Group 36" transform="translate(0 0)">
      <g id="Group_34" data-name="Group 34">
        <path id="Path_51" data-name="Path 51" d="M7705.033,478.48H7632.1a8.3,8.3,0,0,1-8.279-8.279V398.176a8.3,8.3,0,0,1,8.279-8.279h72.937a8.3,8.3,0,0,1,8.276,8.279V470.2A8.3,8.3,0,0,1,7705.033,478.48Zm-18.96-60.682h8.651V406.041l-16.062.332c-4.677,1.116-7.492,3.6-7.864,7.863v12.336h-8.2v10.515h8.03V467.1h12.335V437.376h11.093v-10.39h-10.8v-6.954C7683.3,418.377,7684.21,417.838,7686.073,417.8Z" transform="translate(-7623.817 -389.897)" fill="#5fb67c"/>
      </g>
      <g id="Group_35" data-name="Group 35" transform="translate(0 0.001)">
        <rect id="Rectangle_19" data-name="Rectangle 19" width="89.493" height="88.582" rx="4.161" fill="#5fb67c" stroke="#5fb67c" stroke-linecap="round" stroke-linejoin="round" stroke-width="2.956"/>
        <path id="Path_52" data-name="Path 52" d="M7675.432,398.011v11.757h-8.651c-1.862.04-2.773.579-2.815,2.234v6.954h10.8v10.39h-11.093v29.721h-12.335v-30.01h-8.03V418.542h8.2V406.206c.372-4.262,3.188-6.747,7.864-7.863Z" transform="translate(-7604.525 -381.868)" fill="#111213" stroke="#111213" stroke-linecap="round" stroke-linejoin="round" stroke-width="0.52"/>
      </g>
    </g>
  </g>
</svg>
