<svg xmlns="http://www.w3.org/2000/svg" width="307.461" height="371.835" viewBox="0 0 307.461 371.835">
  <g id="Security" transform="translate(0)">
    <g id="Group_25" data-name="Group 25">
      <path id="Path_26" data-name="Path 26" d="M7702.61,317.048c2.076,134.931,52.474,233.385,152.194,294.645,85.246-61.682,151.569-142.3,148.447-292.39-64.475-12.747-80.226-52.484-146.95-72.725C7794.829,257.07,7773.838,302.053,7702.61,317.048Z" transform="translate(-7699.249 -243.219)" fill="#5fb67c"/>
      <path id="Path_27" data-name="Path 27" d="M7857.666,617.911a3.38,3.38,0,0,1-1.752-.5C7755.958,556,7704.2,455.93,7702.111,319.959a3.37,3.37,0,0,1,2.662-3.334c35.546-7.481,58.339-22.549,80.369-37.114,21.859-14.451,42.5-28.1,73.458-33.384a3.328,3.328,0,0,1,1.54.094c32.15,9.755,52.466,23.837,72.118,37.456,21.242,14.72,41.3,28.627,74.511,35.188a3.363,3.363,0,0,1,2.7,3.221c3.365,162.136-73.852,240.2-149.833,295.188A3.359,3.359,0,0,1,7857.666,617.911ZM7708.879,322.6c2.674,131.261,52.679,228.1,148.636,287.916,73.562-53.591,147.675-129.671,145.294-285.615-32.992-7.031-53.107-20.972-74.372-35.712-19.07-13.217-38.78-26.876-69.487-36.316-29.136,5.146-49.043,18.3-70.1,32.23C7766.84,299.651,7744.116,314.679,7708.879,322.6Z" transform="translate(-7702.111 -246.077)" fill="#5fb67c"/>
    </g>
    <g id="Group_26" data-name="Group 26" transform="translate(73.34 100.367)">
      <path id="Path_28" data-name="Path 28" d="M7738.492,319.814l-24.95,24.946,72.744,62.68,94.753-126.617-28.929-19.286-71.69,93.915Z" transform="translate(-7710.188 -258.183)" fill="#171819"/>
      <path id="Path_29" data-name="Path 29" d="M7789.138,413.648a3.32,3.32,0,0,1-2.184-.812l-72.748-62.682a3.349,3.349,0,0,1-.178-4.911l24.947-24.944a3.345,3.345,0,0,1,4.538-.188l39.243,33.35,69.541-91.108a3.355,3.355,0,0,1,4.53-.751l28.928,19.282a3.34,3.34,0,0,1,1.443,2.228,3.373,3.373,0,0,1-.614,2.576l-94.761,126.619a3.345,3.345,0,0,1-2.323,1.322A3.307,3.307,0,0,1,7789.138,413.648Zm-67.812-66.218,67.28,57.979L7879.087,284.5l-23.369-15.572-69.78,91.41a3.349,3.349,0,0,1-4.835.523l-39.579-33.632Z" transform="translate(-7713.043 -261.037)" fill="#171819"/>
    </g>
  </g>
</svg>
