<svg xmlns="http://www.w3.org/2000/svg" width="399.136" height="136.337" viewBox="0 0 399.136 136.337">
  <g id="Shape_Logo" data-name="Shape Logo" transform="translate(4.33 -5.973)">
    <g id="Logo" transform="translate(0 9)">
      <g id="Group_1" data-name="Group 1" transform="translate(0 1.973)">
        <path id="Path_1" data-name="Path 1" d="M7798.227,179.928H7676.8l74.274-128.651L7770.1,84.23l-4.326,2.5-14.7-25.457-65.622,113.664h112.775Z" transform="translate(-7676.799 -51.278)" fill="#5fb67c" stroke="#5fb67c" stroke-width="5"/>
      </g>
      <g id="Group_2" data-name="Group 2" transform="translate(119.265 125.742)">
        <rect id="Rectangle_10" data-name="Rectangle 10" width="207.812" height="4.996" fill="#5fb67c" stroke="#5fb67c" stroke-width="5"/>
      </g>
      <g id="Group_3" data-name="Group 3" transform="translate(113.629 2.465)">
        <path id="Path_2" data-name="Path 2" d="M7855.38,112.859h-5V56.231H7708.561V75.653h-5V51.394H7855.38Z" transform="translate(-7703.564 -51.394)" fill="#5fb67c" stroke="#5fb67c" stroke-width="5"/>
      </g>
      <g id="Group_4" data-name="Group 4" transform="translate(251.927 0)">
        <path id="Path_3" data-name="Path 3" d="M7804.289,181.624v-5.047c34.035,0,60.688-26.278,60.688-59.819a60.892,60.892,0,1,0-121.784,0h-5.049a65.942,65.942,0,1,1,131.884,0C7870.028,153.13,7841.155,181.624,7804.289,181.624Z" transform="translate(-7729.649 -50.813)" fill="#5fb67c" stroke="#5fb67c" stroke-width="5"/>
        <rect id="Rectangle_13" data-name="Rectangle 13" width="21" height="20" transform="translate(-0.065 52.112)" fill="#111213"/>
      </g>
      <g id="Group_5" data-name="Group 5" transform="translate(78.453 17.997)">
        <path id="Path_4" data-name="Path 4" d="M7728.076,153.748a44.9,44.9,0,0,1-32.8-13.827l7.13-8.274a39.031,39.031,0,0,0,11.768,8.486,32.416,32.416,0,0,0,14.042,3.209q9.273,0,14.4-4.207a13.587,13.587,0,0,0,5.134-11.05,13.8,13.8,0,0,0-1.215-6.062,13.3,13.3,0,0,0-3.276-4.279,23.98,23.98,0,0,0-4.921-3.205q-2.848-1.426-6.128-3l-13.409-5.846a62.587,62.587,0,0,1-6.7-3.422,27.507,27.507,0,0,1-6.134-4.848,23.227,23.227,0,0,1-4.42-6.771,23.836,23.836,0,0,1,.5-18.9,24.173,24.173,0,0,1,6.129-7.909,28.6,28.6,0,0,1,9.267-5.209,35.748,35.748,0,0,1,11.765-1.851A37.518,37.518,0,0,1,7744.762,60a39.191,39.191,0,0,1,12.12,8.342l-6.417,7.7a33.4,33.4,0,0,0-9.486-6.487,28.207,28.207,0,0,0-11.761-2.352q-7.844,0-12.618,3.634a11.915,11.915,0,0,0-4.778,10.053,11.413,11.413,0,0,0,1.357,5.778,14.258,14.258,0,0,0,3.633,4.135,29.286,29.286,0,0,0,4.99,3.133q2.71,1.356,5.56,2.5l13.261,5.706a56.839,56.839,0,0,1,7.559,3.918,27.334,27.334,0,0,1,6.134,5.132,22.425,22.425,0,0,1,4.062,6.847,25.29,25.29,0,0,1,1.5,9.055,24.838,24.838,0,0,1-2.213,10.409,25.1,25.1,0,0,1-6.347,8.482,30.15,30.15,0,0,1-9.978,5.705A39.732,39.732,0,0,1,7728.076,153.748Z" transform="translate(-7695.279 -56.793)" fill="#5fb67c" stroke="#5fb67c" stroke-width="1"/>
        <path id="Path_5" data-name="Path 5" d="M7712.274,130.9V63.307h11.013V80.733l-.383,9.093a38.554,38.554,0,0,1,6.562-4.929,16.123,16.123,0,0,1,8.47-2.157q7.559,0,11.01,4.835t3.446,13.835V130.9h-11.011V102.851q0-5.839-1.718-8.236t-5.651-2.394A9.9,9.9,0,0,0,7728.6,93.7a34.293,34.293,0,0,0-5.315,4.36V130.9Z" transform="translate(-7640.123 -35.654)" fill="#5fb67c" stroke="#5fb67c" stroke-width="1"/>
        <path id="Path_6" data-name="Path 6" d="M7737.367,117.193a13.681,13.681,0,0,1-10.054-3.782,13.433,13.433,0,0,1-3.829-10.006,12.865,12.865,0,0,1,6.56-11.678,32.924,32.924,0,0,1,8.618-3.54,78.348,78.348,0,0,1,12.494-2.2,17.77,17.77,0,0,0-.528-3.494,8.044,8.044,0,0,0-1.433-2.972,6.723,6.723,0,0,0-2.638-2.008,9.9,9.9,0,0,0-4.015-.722,17.867,17.867,0,0,0-6.755,1.341,46,46,0,0,0-6.46,3.256l-4.019-7.37a47.358,47.358,0,0,1,8.805-4.313,30,30,0,0,1,10.536-1.817q8.8,0,13.162,5.217t4.356,15.083v27.857h-9.1l-.766-5.166h-.38a34.722,34.722,0,0,1-6.752,4.5A17.057,17.057,0,0,1,7737.367,117.193Zm3.545-8.618a10.334,10.334,0,0,0,5.216-1.337,27.834,27.834,0,0,0,5.028-3.833V92.872a50.726,50.726,0,0,0-8.041,1.533,23.386,23.386,0,0,0-5.269,2.157,7.667,7.667,0,0,0-2.87,2.73,6.5,6.5,0,0,0-.864,3.252,5.374,5.374,0,0,0,1.917,4.6A7.925,7.925,0,0,0,7740.912,108.575Z" transform="translate(-7603.749 -20.798)" fill="#5fb67c" stroke="#5fb67c" stroke-width="1"/>
        <path id="Path_7" data-name="Path 7" d="M7734.918,134.619V69.035h9.1l.764,4.98h.386a33.662,33.662,0,0,1,6.607-4.313,16.733,16.733,0,0,1,7.56-1.817,17.4,17.4,0,0,1,7.8,1.677,16.155,16.155,0,0,1,5.8,4.835,22.469,22.469,0,0,1,3.639,7.565,36.285,36.285,0,0,1,1.244,9.857,32.179,32.179,0,0,1-1.677,10.774,24.4,24.4,0,0,1-4.451,7.947,19.39,19.39,0,0,1-6.413,4.929,17.478,17.478,0,0,1-7.565,1.724,15.2,15.2,0,0,1-6.125-1.337,23.543,23.543,0,0,1-5.94-3.833l.29,7.854v14.743Zm20.49-26.524a9.587,9.587,0,0,0,7.851-4.067q3.154-4.069,3.156-12.111,0-7.081-2.393-11.008t-7.75-3.927q-4.98,0-10.343,5.264v21.926a16.505,16.505,0,0,0,4.979,3.065A13.349,13.349,0,0,0,7755.408,108.1Z" transform="translate(-7566.644 -20.798)" fill="#5fb67c" stroke="#5fb67c" stroke-width="1"/>
        <path id="Path_8" data-name="Path 8" d="M7769.3,117.193a24.373,24.373,0,0,1-9.093-1.677,21.425,21.425,0,0,1-7.373-4.835,22.109,22.109,0,0,1-4.935-7.7,28.521,28.521,0,0,1-1.771-10.388,27.883,27.883,0,0,1,1.823-10.341,23.662,23.662,0,0,1,4.833-7.756,21.437,21.437,0,0,1,6.943-4.882,19.862,19.862,0,0,1,8.045-1.724,20.409,20.409,0,0,1,8.421,1.63,16.414,16.414,0,0,1,6.079,4.593,20.213,20.213,0,0,1,3.684,7.085,30.812,30.812,0,0,1,1.251,9c0,1.087-.05,2.106-.146,3.065a20.187,20.187,0,0,1-.336,2.3h-29.874q.766,6.323,4.456,9.717a13.358,13.358,0,0,0,9.427,3.4,17.344,17.344,0,0,0,5.7-.908,25.4,25.4,0,0,0,5.219-2.539l3.73,6.894a33.708,33.708,0,0,1-7.467,3.638A26.056,26.056,0,0,1,7769.3,117.193Zm-12.541-29.1h20.869q0-5.457-2.343-8.571t-7.229-3.107a10.4,10.4,0,0,0-7.37,2.967Q7757.521,82.344,7756.758,88.088Z" transform="translate(-7530.268 -20.798)" fill="#5fb67c" stroke="#5fb67c" stroke-width="1"/>
      </g>
    </g>
  </g>
</svg>
