<svg xmlns="http://www.w3.org/2000/svg" width="720.423" height="242.94" viewBox="0 0 720.423 242.94">
  <g id="Shape_Logo" data-name="Shape Logo" transform="translate(626.33 -170.5)">
    <g id="Logo" transform="translate(-622 164)">
      <g id="Group_1" data-name="Group 1" transform="translate(0 12.589)">
        <path id="Path_1" data-name="Path 1" d="M7897.672,285.289H7676.8L7811.9,51.278l34.608,59.938-7.869,4.54-26.739-46.3L7692.537,276.2h205.135Z" transform="translate(-7676.799 -51.278)" fill="#5fb67c" stroke="#5fb67c" stroke-width="5"/>
      </g>
      <g id="Group_2" data-name="Group 2" transform="translate(216.939 237.721)">
        <rect id="Rectangle_10" data-name="Rectangle 10" width="378.004" height="9.087" fill="#5fb67c" stroke="#5fb67c" stroke-width="5"/>
      </g>
      <g id="Group_3" data-name="Group 3" transform="translate(206.687 13.483)">
        <path id="Path_2" data-name="Path 2" d="M7979.711,163.2h-9.088v-103H7712.651V95.521h-9.087V51.394h276.146Z" transform="translate(-7703.564 -51.394)" fill="#5fb67c" stroke="#5fb67c" stroke-width="5"/>
      </g>
      <g id="Group_4" data-name="Group 4" transform="translate(458.247 9)">
        <path id="Path_3" data-name="Path 3" d="M7858.459,288.753v-9.181c61.909,0,110.391-47.8,110.391-108.808a110.76,110.76,0,1,0-221.521,0h-9.185a119.946,119.946,0,1,1,239.893,0C7978.037,236.924,7925.518,288.753,7858.459,288.753Z" transform="translate(-7722.691 -50.813)" fill="#5fb67c" stroke="#5fb67c" stroke-width="5"/>
        <rect id="Rectangle_13" data-name="Rectangle 13" width="39" height="37" transform="translate(-0.385 94.112)" fill="#17181a"/>
      </g>
      <g id="Group_5" data-name="Group 5" transform="translate(142.703 41.736)">
        <path id="Path_4" data-name="Path 4" d="M7754.936,233.152A81.677,81.677,0,0,1,7695.278,208l12.97-15.05a71,71,0,0,0,21.405,15.436,58.957,58.957,0,0,0,25.542,5.838q16.868,0,26.2-7.652t9.339-20.1a25.1,25.1,0,0,0-2.211-11.027,24.188,24.188,0,0,0-5.96-7.784,43.574,43.574,0,0,0-8.952-5.83q-5.18-2.595-11.147-5.452l-24.39-10.633a113.874,113.874,0,0,1-12.182-6.224,50.031,50.031,0,0,1-11.157-8.818,42.271,42.271,0,0,1-8.04-12.316,40.829,40.829,0,0,1-3.109-16.471,40.443,40.443,0,0,1,4.021-17.9,43.965,43.965,0,0,1,11.149-14.386,52.015,52.015,0,0,1,16.856-9.475,65.022,65.022,0,0,1,21.4-3.367,68.249,68.249,0,0,1,28.274,5.83A71.311,71.311,0,0,1,7807.333,77.8L7795.66,91.8A60.761,60.761,0,0,0,7778.405,80a51.31,51.31,0,0,0-21.393-4.278q-14.268,0-22.951,6.61-8.7,6.614-8.691,18.285a20.752,20.752,0,0,0,2.469,10.509,25.92,25.92,0,0,0,6.608,7.521,53.276,53.276,0,0,0,9.077,5.7q4.929,2.467,10.112,4.54l24.121,10.378a103.339,103.339,0,0,1,13.75,7.127,49.692,49.692,0,0,1,11.156,9.336,40.777,40.777,0,0,1,7.389,12.455,46,46,0,0,1,2.727,16.471,45.182,45.182,0,0,1-4.025,18.934,45.659,45.659,0,0,1-11.545,15.428,54.852,54.852,0,0,1-18.15,10.378A72.264,72.264,0,0,1,7754.936,233.152Z" transform="translate(-7695.278 -56.793)" fill="#5fb67c" stroke="#5fb67c" stroke-width="1"/>
        <path id="Path_5" data-name="Path 5" d="M7712.273,186.254V63.307H7732.3v31.7l-.7,16.54a70.071,70.071,0,0,1,11.937-8.965,29.322,29.322,0,0,1,15.405-3.923q13.75,0,20.026,8.8t6.269,25.165v53.636h-20.03V135.236q0-10.621-3.125-14.98-3.142-4.355-10.279-4.355a18,18,0,0,0-9.838,2.695,62.417,62.417,0,0,0-9.668,7.93v59.728Z" transform="translate(-7581.033 -13.007)" fill="#5fb67c" stroke="#5fb67c" stroke-width="1"/>
        <path id="Path_6" data-name="Path 6" d="M7748.735,157.574q-11.314,0-18.287-6.88-6.957-6.869-6.964-18.2a23.4,23.4,0,0,1,11.932-21.243,59.886,59.886,0,0,1,15.676-6.44,142.5,142.5,0,0,1,22.726-4.008,32.23,32.23,0,0,0-.96-6.355,14.625,14.625,0,0,0-2.606-5.405,12.226,12.226,0,0,0-4.8-3.652,18.017,18.017,0,0,0-7.3-1.313,32.5,32.5,0,0,0-12.287,2.44,83.755,83.755,0,0,0-11.751,5.923L7726.8,79.035a86.157,86.157,0,0,1,16.017-7.845,54.562,54.562,0,0,1,19.165-3.305q16.014,0,23.94,9.49t7.925,27.436v50.671H7777.3l-1.394-9.4h-.691a63.169,63.169,0,0,1-12.282,8.185A31.029,31.029,0,0,1,7748.735,157.574Zm6.449-15.675a18.8,18.8,0,0,0,9.488-2.432,50.62,50.62,0,0,0,9.145-6.973V113.336a92.271,92.271,0,0,0-14.626,2.788,42.568,42.568,0,0,0-9.584,3.923,13.952,13.952,0,0,0-5.22,4.965,11.825,11.825,0,0,0-1.571,5.915c0,3.83,1.165,6.625,3.486,8.363A14.414,14.414,0,0,0,7755.185,141.9Z" transform="translate(-7505.689 17.765)" fill="#5fb67c" stroke="#5fb67c" stroke-width="1"/>
        <path id="Path_7" data-name="Path 7" d="M7734.918,189.272V69.978h16.548l1.391,9.058h.7a61.246,61.246,0,0,1,12.018-7.845,30.441,30.441,0,0,1,13.752-3.305,31.656,31.656,0,0,1,14.187,3.05,29.39,29.39,0,0,1,10.544,8.8,40.879,40.879,0,0,1,6.618,13.76,65.981,65.981,0,0,1,2.264,17.93,58.523,58.523,0,0,1-3.051,19.6,44.374,44.374,0,0,1-8.095,14.455,35.279,35.279,0,0,1-11.666,8.965,31.789,31.789,0,0,1-13.761,3.135,27.658,27.658,0,0,1-11.143-2.432,42.828,42.828,0,0,1-10.8-6.973l.526,14.285v26.818Zm37.271-48.246q8.527,0,14.28-7.4,5.736-7.4,5.741-22.03,0-12.88-4.353-20.023t-14.1-7.143q-9.06,0-18.813,9.575v39.883a30.019,30.019,0,0,0,9.057,5.575A24.281,24.281,0,0,0,7772.188,141.026Z" transform="translate(-7428.832 17.765)" fill="#5fb67c" stroke="#5fb67c" stroke-width="1"/>
        <path id="Path_8" data-name="Path 8" d="M7788.275,157.574a44.335,44.335,0,0,1-16.541-3.05,38.968,38.968,0,0,1-13.41-8.8,40.23,40.23,0,0,1-8.977-14.015,51.891,51.891,0,0,1-3.221-18.9,50.719,50.719,0,0,1,3.315-18.81,43.03,43.03,0,0,1,8.792-14.108,38.981,38.981,0,0,1,12.628-8.88,36.129,36.129,0,0,1,14.634-3.135,37.12,37.12,0,0,1,15.317,2.965,29.854,29.854,0,0,1,11.058,8.355,36.765,36.765,0,0,1,6.7,12.888,56.054,56.054,0,0,1,2.275,16.37c0,1.977-.091,3.83-.266,5.575a36.726,36.726,0,0,1-.611,4.177h-54.341q1.395,11.5,8.1,17.675t17.147,6.185a31.552,31.552,0,0,0,10.373-1.652,46.187,46.187,0,0,0,9.493-4.618l6.786,12.54a61.329,61.329,0,0,1-13.583,6.618A47.4,47.4,0,0,1,7788.275,157.574Zm-22.811-52.941h37.96q0-9.926-4.263-15.59t-13.149-5.652a18.914,18.914,0,0,0-13.406,5.4Q7766.851,94.185,7765.464,104.633Z" transform="translate(-7353.486 17.765)" fill="#5fb67c" stroke="#5fb67c" stroke-width="1"/>
      </g>
    </g>
  </g>
</svg>
