<svg xmlns="http://www.w3.org/2000/svg" width="499.444" height="86.74" viewBox="0 0 499.444 86.74">
  <g id="Stars" transform="translate(-605 -4577)">
    <path id="Path_46" data-name="Path 46" d="M7542.139-199.059l13.768,27.895,30.783,4.473-22.274,21.713,5.258,30.659-27.534-14.475-27.533,14.475,5.258-30.659-22.275-21.713,30.784-4.473Z" transform="translate(-6891.588 4777.06)" fill="#5fb67c" stroke="#5fb67c" stroke-linecap="round" stroke-linejoin="round" stroke-width="2"/>
    <path id="Path_47" data-name="Path 47" d="M7542.139-199.059l13.768,27.895,30.783,4.473-22.274,21.713,5.258,30.659-27.534-14.475-27.533,14.475,5.258-30.659-22.275-21.713,30.784-4.473Z" transform="translate(-6789.502 4777.06)" fill="#5fb67c" stroke="#5fb67c" stroke-linecap="round" stroke-linejoin="round" stroke-width="2"/>
    <path id="Path_48" data-name="Path 48" d="M7542.139-199.059l13.768,27.895,30.783,4.473-22.274,21.713,5.258,30.659-27.534-14.475-27.533,14.475,5.258-30.659-22.275-21.713,30.784-4.473Z" transform="translate(-6687.417 4777.06)" fill="#5fb67c" stroke="#5fb67c" stroke-linecap="round" stroke-linejoin="round" stroke-width="2"/>
    <path id="Path_49" data-name="Path 49" d="M7542.139-199.059l13.768,27.895,30.783,4.473-22.274,21.713,5.258,30.659-27.534-14.475-27.533,14.475,5.258-30.659-22.275-21.713,30.784-4.473Z" transform="translate(-6585.331 4777.06)" fill="#5fb67c" stroke="#5fb67c" stroke-linecap="round" stroke-linejoin="round" stroke-width="2"/>
    <path id="Path_50" data-name="Path 50" d="M7542.139-199.059l13.768,27.895,30.783,4.473-22.274,21.713,5.258,30.659-27.534-14.475-27.533,14.475,5.258-30.659-22.275-21.713,30.784-4.473Z" transform="translate(-6483.246 4777.06)" fill="#5fb67c" stroke="#5fb67c" stroke-linecap="round" stroke-linejoin="round" stroke-width="2"/>
  </g>
</svg>
