<svg xmlns="http://www.w3.org/2000/svg" width="339.811" height="348.405" viewBox="0 0 339.811 348.405">
  <g id="Support_Hands" data-name="Support Hands" transform="translate(3 1)">
    <g id="Group_27" data-name="Group 27" transform="translate(-3 139.523)">
      <path id="Path_30" data-name="Path 30" d="M7761.926,431.624a35.736,35.736,0,0,1-25.437-10.51l-27.281-27.276a35.984,35.984,0,0,1,50.891-50.886l27.281,27.276a35.953,35.953,0,0,1-25.453,61.4Zm-27.273-86.616a23.417,23.417,0,0,0-16.543,39.937l27.273,27.276h0c8.793,8.8,24.309,8.8,33.094,0a23.491,23.491,0,0,0,.008-33.1l-27.277-27.27A23.337,23.337,0,0,0,7734.652,345.008Z" transform="translate(-7698.681 -332.433)" fill="#5fb67c"/>
    </g>
    <g id="Group_28" data-name="Group 28" transform="translate(25.311 83.662)">
      <path id="Path_31" data-name="Path 31" d="M7770.826,427.488a35.853,35.853,0,0,1-25.437-10.516l-32.18-32.176A35.982,35.982,0,0,1,7764.1,333.91l32.168,32.176a35.959,35.959,0,0,1-25.437,61.4Zm-32.168-91.521a23.414,23.414,0,0,0-16.547,39.937l32.172,32.17a23.4,23.4,0,0,0,33.09-33.094l-32.168-32.169A23.318,23.318,0,0,0,7738.658,335.967Z" transform="translate(-7702.705 -323.391)" fill="#5fb67c"/>
    </g>
    <g id="Group_29" data-name="Group 29" transform="translate(65.386 40.883)">
      <path id="Path_32" data-name="Path 32" d="M7787.883,431.842a35.709,35.709,0,0,1-25.437-10.509L7719.105,378a35.982,35.982,0,0,1,50.887-50.886l43.336,43.333a35.953,35.953,0,0,1-25.445,61.4Zm-43.34-102.679A23.417,23.417,0,0,0,7728,369.1l43.336,43.339h0c8.8,8.792,24.3,8.8,33.1,0a23.444,23.444,0,0,0,0-33.1L7761.1,336.006A23.332,23.332,0,0,0,7744.543,329.163Z" transform="translate(-7708.602 -316.59)" fill="#5fb67c"/>
    </g>
    <g id="Group_30" data-name="Group 30" transform="translate(107.537 -1)">
      <path id="Path_33" data-name="Path 33" d="M7786.08,418.087a34.47,34.47,0,0,1-24.469-10.125h0l-36.871-36.868a34.642,34.642,0,0,1,0-48.937l1.945-1.95a34.651,34.651,0,0,1,48.941,0l36.875,36.874a34.657,34.657,0,0,1,0,48.943l-1.949,1.943A34.5,34.5,0,0,1,7786.08,418.087ZM7770.5,399.068a22.053,22.053,0,0,0,31.156,0l1.953-1.943a22.063,22.063,0,0,0,0-31.151L7766.736,329.1a22.06,22.06,0,0,0-31.152,0l-1.945,1.95a22.049,22.049,0,0,0,0,31.151Z" transform="translate(-7714.621 -310.089)" fill="#5fb67c"/>
    </g>
    <g id="Group_31" data-name="Group 31" transform="translate(17.16 6.898)">
      <path id="Path_34" data-name="Path 34" d="M7787.037,651.693a6.29,6.29,0,0,1-4.449-1.843L7703.252,570.5a6.293,6.293,0,0,1,0-8.893l29.93-29.931a6.287,6.287,0,0,1,8.891,8.893l-25.48,25.484,70.324,70.333,37.809-39.855a6.26,6.26,0,0,1,6.117-1.767c61.793,15.748,101.832-27.314,152.508-81.849q8.379-9.019,17.18-18.377a6.684,6.684,0,0,1,.715-.654c10.25-7.95,8.453-19.729,2.129-27.88-5.746-7.39-15.324-11.924-24.687-6.736q-1.629,1.151-3.348,2.233a6.289,6.289,0,0,1-7.219-10.283,36.211,36.211,0,0,1,3.84-2.6c11.617-8.371,17.668-18.729,16.723-28.855a20.178,20.178,0,0,0-12.477-17.113c-7.687-3.05-16.258-.893-24.164,6.063a6.293,6.293,0,0,1-8.578-9.2c5.539-5.465,8.48-11.629,8.488-17.843a20.334,20.334,0,0,0-6-14.415c-7.422-7.516-20.285-9.8-32.285,2.069a6.293,6.293,0,0,1-9.285-8.471c7.289-8.88,9.336-17.4,5.93-24.616-3.461-7.333-12.531-12.459-22.043-12.472h-.031c-10.207,0-14.594,2.509-19.32,12.472-1.5,3.138-7.8,1.478-10.93,0s-1.488-2.245,0-5.377c6.8-14.314,15.215-19.673,30.25-19.673h.043c14.426.013,27.855,7.918,33.406,19.673a29.769,29.769,0,0,1,2.234,18.5,33.2,33.2,0,0,1,39.711,39.849,31.764,31.764,0,0,1,17.219,1.748,32.723,32.723,0,0,1,20.367,27.641c.852,9.214-1.937,18.339-7.93,26.585a35.723,35.723,0,0,1,20.02,13.107c10.074,12.968,11.891,32.585-3.949,45.226-5.746,6.076-11.324,12.082-16.793,17.962-52.57,56.578-94.3,101.5-161.211,86.352l-39.75,41.905a6.294,6.294,0,0,1-4.473,1.956Z" transform="translate(-7701.412 -311.186)" fill="#5fb67c"/>
    </g>
    <g id="Group_32" data-name="Group 32" transform="translate(195.606 223.413)">
      <path id="Path_35" data-name="Path 35" d="M7776.4,455c-.238,0-.48,0-.727-.006-15.184-.415-28.781-13.654-44.52-33.421a6.29,6.29,0,0,1,9.84-7.837c11.723,14.723,24.082,28.39,35.012,28.679,5.348.27,11.082-3.075,17.105-9.862l34.133-34.151c5.984-6.17,8.777-11.761,8.48-17.025-.391-7.032-6.223-15.088-17.816-24.616a6.29,6.29,0,0,1,7.988-9.717c14.664,12.057,21.777,22.736,22.387,33.629.508,8.962-3.441,17.654-12.074,26.553l-33.949,33.949C7794.1,450.384,7785.545,455,7776.4,455Z" transform="translate(-7729.784 -345.612)" fill="#5fb67c"/>
    </g>
  </g>
</svg>
