<svg xmlns="http://www.w3.org/2000/svg" width="106.348" height="106.3" viewBox="0 0 106.348 106.3">
  <g id="Twitter" transform="translate(1.711 1.71)">
    <g id="Group_39" data-name="Group 39" transform="translate(0 0)">
      <g id="Group_37" data-name="Group 37">
        <path id="Path_53" data-name="Path 53" d="M7631.563,398.373a51.438,51.438,0,1,1-85.2,57.453l13.369-4.216c21.659,16.866,58.7-2.109,56.255-33.5,3.212-1.437,5.8-3.114,5.416-5.893l-6.182,2.157a12.607,12.607,0,0,0,5.271-7.189Z" transform="translate(-7538.889 -377.673)" fill="#5fb67c" stroke="#5fb67c" stroke-width="1"/>
        <path id="Path_54" data-name="Path 54" d="M7624.21,417.485c-3.882,2.061-7.043,3.211-9.01,2.684-7.042-9.632-24.725-2.157-21.609,11.98-9.056-.384-17.922-4.936-26.644-13.13-2.827,7.714-1.436,13.177,3.068,17.011-1.1.623-2.875-.288-4.745-1.438.241,4.839,1.246,9.536,10.064,12.891-1.392.957-3.212,1-5.176.766,1.773,4.121,5.176,7.284,10.445,9.391-3.882,2.923-9.728,4.17-17.154,4.266l-13.369,4.216a51.438,51.438,0,0,1,85.2-57.453Z" transform="translate(-7542.607 -387.969)" fill="#5fb67c" stroke="#5fb67c" stroke-width="1"/>
      </g>
      <g id="Group_38" data-name="Group 38">
        <path id="Path_55" data-name="Path 55" d="M7635.281,408.669a51.438,51.438,0,1,1-92.674,30.762,51.433,51.433,0,0,1,92.674-30.762Z" transform="translate(-7542.607 -387.969)" fill="#5fb67c" stroke="#5fb67c" stroke-linecap="round" stroke-linejoin="round" stroke-width="3.421"/>
        <path id="Path_56" data-name="Path 56" d="M7613.843,403.626a12.607,12.607,0,0,1-5.271,7.189l6.182-2.157c.382,2.78-2.2,4.457-5.416,5.893,2.445,31.387-34.6,50.362-56.255,33.5,7.427-.1,13.272-1.343,17.154-4.266-5.27-2.107-8.672-5.271-10.445-9.391,1.964.239,3.784.191,5.176-.766-8.818-3.355-9.823-8.052-10.064-12.891,1.87,1.15,3.644,2.061,4.745,1.438-4.5-3.834-5.9-9.3-3.068-17.011,8.722,8.193,17.588,12.746,26.644,13.13-3.115-14.136,14.567-21.612,21.609-11.98C7606.8,406.837,7609.961,405.687,7613.843,403.626Z" transform="translate(-7532.239 -374.11)" fill="#111213" stroke="#5fb67c" stroke-linejoin="round" stroke-width="0.602"/>
      </g>
    </g>
  </g>
</svg>
