<svg xmlns="http://www.w3.org/2000/svg" width="106.109" height="110.868" viewBox="0 0 106.109 110.868">
  <g id="Both" transform="translate(108.628 0) rotate(90)">
    <g id="Monitor" transform="translate(54.604 108.628) rotate(-103)">
      <g id="Group_33" data-name="Group 33" transform="translate(0 0)">
        <g id="Group_6" data-name="Group 6">
          <path id="Path_9" data-name="Path 9" d="M77.351,48.09H2.968A2.956,2.956,0,0,1,0,45.155V2.933A2.955,2.955,0,0,1,2.968,0H77.351a2.957,2.957,0,0,1,2.973,2.933V45.155A2.958,2.958,0,0,1,77.351,48.09ZM3.426,44.7H76.9V3.385H3.426Z" fill="#191b1b"/>
        </g>
        <g id="Group_7" data-name="Group 7" transform="translate(27.457 52.191)">
          <path id="Path_10" data-name="Path 10" d="M4.068,0H19.2l.73,6.361,3.767,3.84H0l3.462-3.66Z" transform="translate(0.859 0.846)" fill="#191b1b"/>
          <path id="Path_11" data-name="Path 11" d="M24.552,11.893H.861a.86.86,0,0,1-.79-.508.839.839,0,0,1,.161-.916L3.5,7.021,4.074.768A.854.854,0,0,1,4.927,0H20.059a.852.852,0,0,1,.85.75L21.6,6.825l3.565,3.632a.839.839,0,0,1,.176.919A.859.859,0,0,1,24.552,11.893ZM2.831,10.2h19.7L20.172,7.8a.861.861,0,0,1-.238-.494l-.642-5.609H5.711L5.175,7.465a.834.834,0,0,1-.23.5ZM4.32,7.387h0Z" transform="translate(0 0)" fill="#191b1b"/>
        </g>
      </g>
    </g>
    <g id="Store" transform="translate(14.364 76.6) rotate(-103)">
      <path id="Path_40" data-name="Path 40" d="M0,0H54.917V31.546H0Z" transform="translate(3.763 30.147)" fill="#72bf87"/>
      <g id="Group_8" data-name="Group 8" transform="translate(0 0)">
        <path id="Path_12" data-name="Path 12" d="M56.285,25.27a6.754,6.754,0,0,1-5.393-2.936,9.437,9.437,0,0,1-.648-1.016,7.061,7.061,0,0,1-6.1,3.952,6.822,6.822,0,0,1-5.432-2.929,9.469,9.469,0,0,1-.66-1.024,7,7,0,0,1-6.054,3.953A6.756,6.756,0,0,1,26.6,22.335a9.754,9.754,0,0,1-.653-1.028,7.134,7.134,0,0,1-6.168,3.964h0a6.9,6.9,0,0,1-5.472-2.923,10.1,10.1,0,0,1-.684-1.056,9.158,9.158,0,0,1-.663,1.043A6.751,6.751,0,0,1,7.569,25.27h0C3.925,25.27,0,21.9,0,14.511A1.491,1.491,0,0,1,.184,13.8L7.238.8A1.537,1.537,0,0,1,8.589,0h0L55.27.135A1.532,1.532,0,0,1,56.61.927L63.67,13.791a1.517,1.517,0,0,1,.182.72C63.852,21.9,59.927,25.27,56.285,25.27ZM50.244,13a1.521,1.521,0,0,1,1.531,1.512c0,5.077,2.268,7.734,4.51,7.734,2.183,0,4.392-2.526,4.5-7.358L54.351,3.156,9.5,3.028,3.068,14.883a9.738,9.738,0,0,0,1.59,5.674,3.683,3.683,0,0,0,2.911,1.688c2.242,0,4.511-2.657,4.511-7.734A1.52,1.52,0,0,1,13.61,13h0a1.522,1.522,0,0,1,1.531,1.512,9.817,9.817,0,0,0,1.626,6.034,3.824,3.824,0,0,0,3.012,1.7h0a3.821,3.821,0,0,0,3.016-1.7,9.813,9.813,0,0,0,1.629-6.034A1.521,1.521,0,0,1,25.958,13h0a1.522,1.522,0,0,1,1.53,1.512c0,5.077,2.266,7.734,4.506,7.734S36.5,19.588,36.5,14.511a1.531,1.531,0,0,1,3.061,0c0,5.077,2.3,7.734,4.576,7.734s4.575-2.657,4.575-7.734A1.522,1.522,0,0,1,50.244,13Z" fill="#1b1c1e"/>
      </g>
      <g id="Group_9" data-name="Group 9" transform="translate(0.277 12.999)">
        <path id="Path_13" data-name="Path 13" d="M1.53,3.075A1.521,1.521,0,0,1,0,1.564,1.521,1.521,0,0,1,1.53.05L62.042,0h0a1.523,1.523,0,0,1,1.531,1.511,1.522,1.522,0,0,1-1.53,1.514l-60.512.05Z" transform="translate(0 0)" fill="#1b1c1e"/>
      </g>
      <g id="Group_10" data-name="Group 10" transform="translate(12.03 0.482)">
        <path id="Path_14" data-name="Path 14" d="M1.534,15.582a1.58,1.58,0,0,1-.485-.077A1.509,1.509,0,0,1,.08,13.591L4.322,1.034A1.534,1.534,0,0,1,6.259.078a1.508,1.508,0,0,1,.968,1.913L2.988,14.548A1.535,1.535,0,0,1,1.534,15.582Z" transform="translate(0 0)" fill="#1b1c1e"/>
      </g>
      <g id="Group_11" data-name="Group 11" transform="translate(24.426 0.481)">
        <path id="Path_15" data-name="Path 15" d="M1.533,15.543a1.259,1.259,0,0,1-.15-.008A1.517,1.517,0,0,1,.008,13.882L1.259,1.364a1.532,1.532,0,0,1,3.05.3L3.058,14.179A1.527,1.527,0,0,1,1.533,15.543Z" transform="translate(0 0)" fill="#1b1c1e"/>
      </g>
      <g id="Group_12" data-name="Group 12" transform="translate(35.207 0.418)">
        <path id="Path_16" data-name="Path 16" d="M2.825,15.605a1.521,1.521,0,0,1-1.52-1.36L.008,1.669A1.513,1.513,0,0,1,1.377.011,1.517,1.517,0,0,1,3.055,1.363L4.349,13.94A1.514,1.514,0,0,1,2.982,15.6,1.351,1.351,0,0,1,2.825,15.605Z" transform="translate(0 0)" fill="#1b1c1e"/>
      </g>
      <g id="Group_13" data-name="Group 13" transform="translate(44.734 0.482)">
        <path id="Path_17" data-name="Path 17" d="M5.51,15.541a1.531,1.531,0,0,1-1.46-1.059L.07,1.965a1.508,1.508,0,0,1,1-1.9,1.53,1.53,0,0,1,1.918.989L6.973,13.575a1.508,1.508,0,0,1-1,1.9A1.571,1.571,0,0,1,5.51,15.541Z" transform="translate(0 0)" fill="#1b1c1e"/>
      </g>
      <g id="Group_14" data-name="Group 14" transform="translate(2.627 20.91)">
        <path id="Path_18" data-name="Path 18" d="M57.111,43.034H1.53A1.522,1.522,0,0,1,0,41.522V1.665A1.521,1.521,0,0,1,1.53.153,1.521,1.521,0,0,1,3.061,1.665V40.009H55.579V1.512a1.531,1.531,0,0,1,3.061,0V41.522A1.521,1.521,0,0,1,57.111,43.034Z" transform="translate(0 0)" fill="#1b1c1e"/>
      </g>
      <g id="Group_15" data-name="Group 15" transform="translate(9.709 30.441)">
        <path id="Path_19" data-name="Path 19" d="M14.979,33.5a1.522,1.522,0,0,1-1.531-1.512V3.025H3.063V31.991A1.522,1.522,0,0,1,1.531,33.5,1.522,1.522,0,0,1,0,31.991V1.512A1.522,1.522,0,0,1,1.531,0H14.979A1.523,1.523,0,0,1,16.51,1.512V31.991A1.522,1.522,0,0,1,14.979,33.5Z" transform="translate(0 0)" fill="#1b1c1e"/>
      </g>
      <g id="Group_16" data-name="Group 16" transform="translate(29.881 30.659)">
        <path id="Path_20" data-name="Path 20" d="M22.694,21.312H1.531A1.522,1.522,0,0,1,0,19.8V1.512A1.522,1.522,0,0,1,1.531,0H22.694a1.521,1.521,0,0,1,1.53,1.512V19.8A1.521,1.521,0,0,1,22.694,21.312ZM3.063,18.287h18.1V3.025H3.063Z" transform="translate(0 0)" fill="#1b1c1e"/>
      </g>
    </g>
  </g>
</svg>
