<svg xmlns="http://www.w3.org/2000/svg" width="145.639" height="121.43" viewBox="0 0 145.639 121.43">
  <g id="Group_33" data-name="Group 33" transform="matrix(0.978, -0.208, 0.208, 0.978, 0, 27.452)">
    <g id="Group_6" data-name="Group 6">
      <path id="Path_9" data-name="Path 9" d="M127.151,79.3H4.883A4.866,4.866,0,0,1,0,74.458V4.837A4.864,4.864,0,0,1,4.883,0H127.151a4.868,4.868,0,0,1,4.886,4.837V74.458A4.87,4.87,0,0,1,127.151,79.3ZM5.634,73.716H126.4V5.582H5.634Z" fill="#191b1b"/>
    </g>
    <g id="Group_7" data-name="Group 7" transform="translate(45.133 86.061)">
      <path id="Path_10" data-name="Path 10" d="M6.688,0H31.56l1.2,10.488,6.192,6.333H0l5.69-6.036Z" transform="translate(1.41 1.395)" fill="#191b1b"/>
      <path id="Path_11" data-name="Path 11" d="M40.359,19.61H1.412a1.407,1.407,0,0,1-1.294-.837,1.376,1.376,0,0,1,.264-1.51l5.361-5.686.951-10.31A1.409,1.409,0,0,1,8.1,0h24.87a1.4,1.4,0,0,1,1.4,1.236l1.14,10.017,5.86,5.99a1.387,1.387,0,0,1,.289,1.516A1.411,1.411,0,0,1,40.359,19.61ZM4.652,16.819H37.037l-3.882-3.963a1.422,1.422,0,0,1-.389-.815l-1.056-9.25H9.387l-.881,9.518a1.387,1.387,0,0,1-.376.823ZM7.1,12.18h0Z" fill="#191b1b"/>
    </g>
  </g>
</svg>
