<svg xmlns="http://www.w3.org/2000/svg" width="131.734" height="136.527" viewBox="0 0 131.734 136.527">
  <g id="Store" transform="matrix(0.978, -0.208, 0.208, 0.978, 0, 23.829)">
    <g id="Group_9" data-name="Group 9" transform="translate(0.498 23.625)">
      <path id="Path_13" data-name="Path 13" d="M2.747,5.588a2.749,2.749,0,0,1,0-5.5L111.363,0h0a2.749,2.749,0,0,1,0,5.5L2.751,5.588Z" fill="#1b1c1e"/>
    </g>
    <g id="Group_10" data-name="Group 10" transform="translate(21.592 0.876)">
      <path id="Path_14" data-name="Path 14" d="M2.751,28.321a2.84,2.84,0,0,1-.872-.14A2.753,2.753,0,0,1,.143,24.7L7.756,1.878a2.749,2.749,0,0,1,5.215,1.74L5.36,26.441A2.754,2.754,0,0,1,2.751,28.321Z" fill="#1b1c1e"/>
    </g>
    <g id="Group_11" data-name="Group 11" transform="translate(43.84 0.874)">
      <path id="Path_15" data-name="Path 15" d="M2.754,28.249a2.336,2.336,0,0,1-.275-.014,2.75,2.75,0,0,1-2.466-3L2.261,2.48a2.75,2.75,0,0,1,5.474.542L5.487,25.77A2.752,2.752,0,0,1,2.754,28.249Z" fill="#1b1c1e"/>
    </g>
    <g id="Group_12" data-name="Group 12" transform="translate(63.192 0.76)">
      <path id="Path_16" data-name="Path 16" d="M5.073,28.362a2.746,2.746,0,0,1-2.731-2.471L.016,3.033a2.747,2.747,0,1,1,5.467-.555L7.809,25.336a2.745,2.745,0,0,1-2.455,3.013A2.4,2.4,0,0,1,5.073,28.362Z" fill="#1b1c1e"/>
    </g>
    <g id="Group_13" data-name="Group 13" transform="translate(80.293 0.876)">
      <path id="Path_17" data-name="Path 17" d="M9.893,28.246A2.754,2.754,0,0,1,7.27,26.322L.127,3.571A2.748,2.748,0,1,1,5.37,1.925l7.146,22.748a2.749,2.749,0,0,1-2.623,3.573Z" fill="#1b1c1e"/>
    </g>
    <g id="Group_14" data-name="Group 14" transform="translate(4.712 38.003)">
      <path id="Path_18" data-name="Path 18" d="M102.515,78.214H2.748A2.75,2.75,0,0,1,0,75.465V3.026a2.749,2.749,0,0,1,5.5,0v69.69H99.764V2.749a2.749,2.749,0,0,1,5.5,0V75.465A2.75,2.75,0,0,1,102.515,78.214Z" fill="#1b1c1e"/>
    </g>
    <g id="Group_15" data-name="Group 15" transform="translate(17.428 55.326)">
      <path id="Path_19" data-name="Path 19" d="M26.885,60.892a2.75,2.75,0,0,1-2.749-2.749V5.5H5.5V58.143a2.749,2.749,0,1,1-5.5,0V2.749A2.749,2.749,0,0,1,2.749,0H26.885a2.75,2.75,0,0,1,2.749,2.749V58.143A2.748,2.748,0,0,1,26.885,60.892Z" fill="#1b1c1e"/>
    </g>
    <g id="Group_16" data-name="Group 16" transform="translate(53.633 55.722)">
      <path id="Path_20" data-name="Path 20" d="M40.733,38.735H2.749A2.748,2.748,0,0,1,0,35.986V2.749A2.748,2.748,0,0,1,2.749,0H40.733A2.748,2.748,0,0,1,43.48,2.749V35.986A2.748,2.748,0,0,1,40.733,38.735ZM5.5,33.237H37.983V5.5H5.5Z" fill="#1b1c1e"/>
    </g>
    <g id="Group_8" data-name="Group 8">
      <path id="Path_12" data-name="Path 12" d="M101.024,45.928a12.084,12.084,0,0,1-9.679-5.335,17.15,17.15,0,0,1-1.161-1.847c-2.674,4.882-6.911,7.182-10.961,7.182A12.207,12.207,0,0,1,69.475,40.6a16.35,16.35,0,0,1-1.182-1.861c-2.648,4.882-6.854,7.185-10.867,7.185a12.082,12.082,0,0,1-9.677-5.335,17.421,17.421,0,0,1-1.173-1.869c-2.693,4.9-6.979,7.2-11.07,7.2h0a12.347,12.347,0,0,1-9.824-5.313A17.45,17.45,0,0,1,24.451,38.7a16.512,16.512,0,0,1-1.19,1.9,12.076,12.076,0,0,1-9.675,5.335h0C7.041,45.928,0,39.809,0,26.374a2.761,2.761,0,0,1,.325-1.3L12.988,1.451A2.755,2.755,0,0,1,15.413,0h.009L99.205.245a2.75,2.75,0,0,1,2.408,1.44l12.667,23.38a2.761,2.761,0,0,1,.332,1.308C114.612,39.809,107.567,45.928,101.024,45.928Zm-10.84-22.3a2.746,2.746,0,0,1,2.747,2.749c0,9.227,4.071,14.057,8.093,14.057,3.92,0,7.887-4.59,8.081-13.372L97.555,5.737,17.056,5.5,5.506,27.05c.113,5.407,1.6,8.584,2.854,10.313a6.588,6.588,0,0,0,5.227,3.068c4.021,0,8.092-4.829,8.092-14.057a2.747,2.747,0,0,1,2.748-2.749h0a2.75,2.75,0,0,1,2.75,2.749c0,5.808,1.586,9.17,2.919,10.967a6.845,6.845,0,0,0,5.409,3.09h0a6.838,6.838,0,0,0,5.411-3.09c1.332-1.8,2.924-5.159,2.924-10.967a2.748,2.748,0,0,1,2.75-2.749h0a2.75,2.75,0,0,1,2.747,2.749c0,9.227,4.068,14.057,8.088,14.057s8.09-4.829,8.09-14.057a2.75,2.75,0,0,1,5.5,0c0,9.227,4.133,14.057,8.209,14.057s8.211-4.829,8.211-14.057A2.75,2.75,0,0,1,90.185,23.625Z" fill="#1b1c1e"/>
    </g>
  </g>
</svg>
