<svg xmlns="http://www.w3.org/2000/svg" width="173.462" height="177.848" viewBox="0 0 173.462 177.848">
  <g id="Support_Hands" data-name="Support Hands" transform="translate(0)">
    <g id="Group_27" data-name="Group 27" transform="translate(0 71.732)">
      <path id="Path_30" data-name="Path 30" d="M7730.966,383.066a18.244,18.244,0,0,1-12.985-5.365l-13.927-13.924a18.369,18.369,0,0,1,25.979-25.976l13.926,13.924a18.353,18.353,0,0,1-12.992,31.34Zm-13.923-44.214a11.954,11.954,0,0,0-8.444,20.386l13.922,13.924h0a12.274,12.274,0,0,0,16.894,0,11.991,11.991,0,0,0,0-16.9l-13.924-13.92A11.915,11.915,0,0,0,7717.043,338.852Z" transform="translate(-7698.681 -332.433)" fill="#5fb67c"/>
    </g>
    <g id="Group_28" data-name="Group 28" transform="translate(14.452 43.217)">
      <path id="Path_31" data-name="Path 31" d="M7737.478,376.529a18.3,18.3,0,0,1-12.985-5.368l-16.426-16.425a18.368,18.368,0,0,1,25.976-25.976l16.421,16.425a18.356,18.356,0,0,1-12.985,31.344Zm-16.421-46.718a11.952,11.952,0,0,0-8.445,20.386l16.422,16.421a11.944,11.944,0,0,0,16.891-16.893L7729.5,333.3A11.9,11.9,0,0,0,7721.057,329.811Z" transform="translate(-7702.705 -323.391)" fill="#5fb67c"/>
    </g>
    <g id="Group_29" data-name="Group 29" transform="translate(34.909 21.38)">
      <path id="Path_32" data-name="Path 32" d="M7749.072,375.422a18.23,18.23,0,0,1-12.985-5.365l-22.123-22.12a18.368,18.368,0,0,1,25.976-25.976l22.121,22.12a18.353,18.353,0,0,1-12.988,31.34Zm-22.124-52.414a11.954,11.954,0,0,0-8.444,20.386l22.121,22.123h0a12.283,12.283,0,0,0,16.9,0,11.967,11.967,0,0,0,0-16.9L7735.4,326.5A11.912,11.912,0,0,0,7726.948,323.008Z" transform="translate(-7708.602 -316.59)" fill="#5fb67c"/>
    </g>
    <g id="Group_30" data-name="Group 30" transform="translate(56.425 0)">
      <path id="Path_33" data-name="Path 33" d="M7751.1,365.218a17.593,17.593,0,0,1-12.49-5.169h0l-18.822-18.82a17.685,17.685,0,0,1,0-24.981l.993-1a17.689,17.689,0,0,1,24.983,0l18.823,18.823a17.692,17.692,0,0,1,0,24.984l-1,.992A17.613,17.613,0,0,1,7751.1,365.218Zm-7.952-9.708a11.258,11.258,0,0,0,15.9,0l1-.992a11.264,11.264,0,0,0,0-15.9l-18.824-18.823a11.26,11.26,0,0,0-15.9,0l-.994,1a11.255,11.255,0,0,0,0,15.9Z" transform="translate(-7714.621 -310.089)" fill="#5fb67c"/>
    </g>
    <g id="Group_31" data-name="Group 31" transform="translate(10.291 4.032)">
      <path id="Path_34" data-name="Path 34" d="M7745.121,485a3.208,3.208,0,0,1-2.271-.941l-40.5-40.5a3.212,3.212,0,0,1,0-4.54l15.278-15.279a3.209,3.209,0,0,1,4.537,4.54l-13.006,13.009,35.9,35.9,19.3-20.345a3.2,3.2,0,0,1,3.123-.9c31.543,8.039,51.981-13.943,77.85-41.781q4.277-4.6,8.771-9.381a3.351,3.351,0,0,1,.364-.334c5.232-4.058,4.315-10.071,1.086-14.232-2.933-3.772-7.822-6.087-12.6-3.439q-.831.588-1.709,1.14a3.21,3.21,0,0,1-3.685-5.249,18.612,18.612,0,0,1,1.96-1.329c5.931-4.273,9.02-9.561,8.537-14.729a10.3,10.3,0,0,0-6.369-8.736c-3.924-1.557-8.3-.456-12.336,3.095a3.212,3.212,0,0,1-4.378-4.7c2.827-2.79,4.329-5.936,4.332-9.108a10.375,10.375,0,0,0-3.064-7.358c-3.788-3.836-10.354-5-16.48,1.056a3.212,3.212,0,0,1-4.739-4.324c3.721-4.533,4.766-8.883,3.027-12.566-1.767-3.743-6.4-6.36-11.253-6.366h-.016c-5.21,0-7.449,1.281-9.863,6.366-.767,1.6-3.979.755-5.578,0s-.76-1.146,0-2.745c3.472-7.307,7.767-10.042,15.441-10.042h.022c7.363.006,14.219,4.042,17.053,10.042a15.209,15.209,0,0,1,1.141,9.445,16.948,16.948,0,0,1,20.271,20.341,16.213,16.213,0,0,1,8.789.893,16.7,16.7,0,0,1,10.4,14.11,19.8,19.8,0,0,1-4.048,13.571,18.231,18.231,0,0,1,10.219,6.69c5.143,6.62,6.07,16.633-2.015,23.086q-4.4,4.652-8.572,9.169c-26.836,28.881-48.136,51.814-82.294,44.08L7747.45,484a3.214,3.214,0,0,1-2.283,1Z" transform="translate(-7701.412 -311.186)" fill="#5fb67c"/>
    </g>
    <g id="Group_32" data-name="Group 32" transform="translate(101.381 114.555)">
      <path id="Path_35" data-name="Path 35" d="M7753.58,401.451c-.121,0-.245,0-.371,0-7.75-.212-14.691-6.97-22.726-17.06a3.211,3.211,0,0,1,5.023-4c5.983,7.516,12.293,14.492,17.872,14.64,2.729.138,5.656-1.57,8.731-5.034l17.423-17.433c3.056-3.149,4.481-6,4.33-8.691-.2-3.589-3.176-7.7-9.095-12.566a3.211,3.211,0,0,1,4.078-4.96c7.484,6.154,11.116,11.606,11.427,17.166.26,4.575-1.756,9.012-6.163,13.555l-17.33,17.33C7762.612,399.095,7758.247,401.451,7753.58,401.451Z" transform="translate(-7729.784 -345.612)" fill="#5fb67c"/>
    </g>
  </g>
</svg>
